<mxfile host="app.diagrams.net" agent="Mozilla/5.0 (Windows NT 10.0; Win64; x64) AppleWebKit/537.36 (KHTML, like Gecko) Chrome/135.0.0.0 Safari/537.36" version="26.2.14">
  <diagram id="C5RBs43oDa-KdzZeNtuy" name="Page-1">
    <mxGraphModel dx="2066" dy="777" grid="1" gridSize="10" guides="1" tooltips="1" connect="1" arrows="1" fold="1" page="1" pageScale="1" pageWidth="827" pageHeight="1169" math="0" shadow="0">
      <root>
        <mxCell id="WIyWlLk6GJQsqaUBKTNV-0" />
        <mxCell id="WIyWlLk6GJQsqaUBKTNV-1" parent="WIyWlLk6GJQsqaUBKTNV-0" />
        <mxCell id="B1A5lcR5f1wwEApOaVD2-29" value="Colaborador" style="swimlane;fontStyle=1;align=center;verticalAlign=top;childLayout=stackLayout;horizontal=1;startSize=26;horizontalStack=0;resizeParent=1;resizeParentMax=0;resizeLast=0;collapsible=1;marginBottom=0;whiteSpace=wrap;html=1;" parent="WIyWlLk6GJQsqaUBKTNV-1" vertex="1">
          <mxGeometry x="840" y="560" width="190" height="130" as="geometry" />
        </mxCell>
        <mxCell id="B1A5lcR5f1wwEApOaVD2-30" value="- nome : String&lt;div&gt;- cpf : String&lt;/div&gt;&lt;div&gt;- id : int&lt;/div&gt;&lt;div&gt;- Cargo : String&lt;/div&gt;&lt;div&gt;- DataAdmissao : Date&lt;/div&gt;&lt;div&gt;- Perfil : String&lt;/div&gt;" style="text;strokeColor=none;fillColor=none;align=left;verticalAlign=top;spacingLeft=4;spacingRight=4;overflow=hidden;rotatable=0;points=[[0,0.5],[1,0.5]];portConstraint=eastwest;whiteSpace=wrap;html=1;" parent="B1A5lcR5f1wwEApOaVD2-29" vertex="1">
          <mxGeometry y="26" width="190" height="104" as="geometry" />
        </mxCell>
        <mxCell id="B1A5lcR5f1wwEApOaVD2-38" value="RegistroPonto" style="swimlane;fontStyle=1;align=center;verticalAlign=top;childLayout=stackLayout;horizontal=1;startSize=26;horizontalStack=0;resizeParent=1;resizeParentMax=0;resizeLast=0;collapsible=1;marginBottom=0;whiteSpace=wrap;html=1;" parent="WIyWlLk6GJQsqaUBKTNV-1" vertex="1">
          <mxGeometry x="530" y="30" width="190" height="110" as="geometry" />
        </mxCell>
        <mxCell id="B1A5lcR5f1wwEApOaVD2-39" value="- id: int&lt;div&gt;- dataHora : localDateTime&lt;/div&gt;&lt;div&gt;- tipo : String&lt;/div&gt;&lt;div&gt;- colaborador : Colaborador&lt;/div&gt;" style="text;strokeColor=none;fillColor=none;align=left;verticalAlign=top;spacingLeft=4;spacingRight=4;overflow=hidden;rotatable=0;points=[[0,0.5],[1,0.5]];portConstraint=eastwest;whiteSpace=wrap;html=1;" parent="B1A5lcR5f1wwEApOaVD2-38" vertex="1">
          <mxGeometry y="26" width="190" height="84" as="geometry" />
        </mxCell>
        <mxCell id="B1A5lcR5f1wwEApOaVD2-42" value="SistemaPonto" style="swimlane;fontStyle=1;align=center;verticalAlign=top;childLayout=stackLayout;horizontal=1;startSize=26;horizontalStack=0;resizeParent=1;resizeParentMax=0;resizeLast=0;collapsible=1;marginBottom=0;whiteSpace=wrap;html=1;" parent="WIyWlLk6GJQsqaUBKTNV-1" vertex="1">
          <mxGeometry x="840" y="40" width="240" height="70" as="geometry" />
        </mxCell>
        <mxCell id="B1A5lcR5f1wwEApOaVD2-45" value="+ cadastrarColaborador ()&lt;div&gt;+ registrarPonto ()&lt;/div&gt;&lt;div&gt;&lt;div&gt;&lt;br&gt;&lt;/div&gt;&lt;/div&gt;" style="text;strokeColor=none;fillColor=none;align=left;verticalAlign=top;spacingLeft=4;spacingRight=4;overflow=hidden;rotatable=0;points=[[0,0.5],[1,0.5]];portConstraint=eastwest;whiteSpace=wrap;html=1;" parent="B1A5lcR5f1wwEApOaVD2-42" vertex="1">
          <mxGeometry y="26" width="240" height="44" as="geometry" />
        </mxCell>
        <mxCell id="B1A5lcR5f1wwEApOaVD2-46" value="Conexao" style="swimlane;fontStyle=1;align=center;verticalAlign=top;childLayout=stackLayout;horizontal=1;startSize=26;horizontalStack=0;resizeParent=1;resizeParentMax=0;resizeLast=0;collapsible=1;marginBottom=0;whiteSpace=wrap;html=1;" parent="WIyWlLk6GJQsqaUBKTNV-1" vertex="1">
          <mxGeometry x="540" y="250" width="190" height="148" as="geometry" />
        </mxCell>
        <mxCell id="B1A5lcR5f1wwEApOaVD2-47" value="- url : String&amp;nbsp;&lt;div&gt;- user : String&lt;/div&gt;&lt;div&gt;- password : String&lt;/div&gt;&lt;div&gt;- conexao : Connection&lt;/div&gt;" style="text;strokeColor=none;fillColor=none;align=left;verticalAlign=top;spacingLeft=4;spacingRight=4;overflow=hidden;rotatable=0;points=[[0,0.5],[1,0.5]];portConstraint=eastwest;whiteSpace=wrap;html=1;" parent="B1A5lcR5f1wwEApOaVD2-46" vertex="1">
          <mxGeometry y="26" width="190" height="74" as="geometry" />
        </mxCell>
        <mxCell id="B1A5lcR5f1wwEApOaVD2-77" value="" style="line;strokeWidth=1;fillColor=none;align=left;verticalAlign=middle;spacingTop=-1;spacingLeft=3;spacingRight=3;rotatable=0;labelPosition=right;points=[];portConstraint=eastwest;strokeColor=inherit;" parent="B1A5lcR5f1wwEApOaVD2-46" vertex="1">
          <mxGeometry y="100" width="190" height="8" as="geometry" />
        </mxCell>
        <mxCell id="B1A5lcR5f1wwEApOaVD2-48" value="" style="line;strokeWidth=1;fillColor=none;align=left;verticalAlign=middle;spacingTop=-1;spacingLeft=3;spacingRight=3;rotatable=0;labelPosition=right;points=[];portConstraint=eastwest;strokeColor=inherit;" parent="B1A5lcR5f1wwEApOaVD2-46" vertex="1">
          <mxGeometry y="108" width="190" as="geometry" />
        </mxCell>
        <mxCell id="B1A5lcR5f1wwEApOaVD2-49" value="+ conectar(): Connection&lt;div&gt;+ desconectar () : void&lt;/div&gt;" style="text;strokeColor=none;fillColor=none;align=left;verticalAlign=top;spacingLeft=4;spacingRight=4;overflow=hidden;rotatable=0;points=[[0,0.5],[1,0.5]];portConstraint=eastwest;whiteSpace=wrap;html=1;" parent="B1A5lcR5f1wwEApOaVD2-46" vertex="1">
          <mxGeometry y="108" width="190" height="40" as="geometry" />
        </mxCell>
        <mxCell id="B1A5lcR5f1wwEApOaVD2-50" value="RelatorioPonto" style="swimlane;fontStyle=1;align=center;verticalAlign=top;childLayout=stackLayout;horizontal=1;startSize=26;horizontalStack=0;resizeParent=1;resizeParentMax=0;resizeLast=0;collapsible=1;marginBottom=0;whiteSpace=wrap;html=1;" parent="WIyWlLk6GJQsqaUBKTNV-1" vertex="1">
          <mxGeometry x="540" y="505" width="210" height="80" as="geometry" />
        </mxCell>
        <mxCell id="B1A5lcR5f1wwEApOaVD2-53" value="+ gerarRelatorioColaborador (int id): void&lt;div&gt;+ GerarRelatorio\Geral () : void&lt;/div&gt;" style="text;strokeColor=none;fillColor=none;align=left;verticalAlign=top;spacingLeft=4;spacingRight=4;overflow=hidden;rotatable=0;points=[[0,0.5],[1,0.5]];portConstraint=eastwest;whiteSpace=wrap;html=1;" parent="B1A5lcR5f1wwEApOaVD2-50" vertex="1">
          <mxGeometry y="26" width="210" height="54" as="geometry" />
        </mxCell>
        <mxCell id="B1A5lcR5f1wwEApOaVD2-54" value="Menu" style="swimlane;fontStyle=1;align=center;verticalAlign=top;childLayout=stackLayout;horizontal=1;startSize=26;horizontalStack=0;resizeParent=1;resizeParentMax=0;resizeLast=0;collapsible=1;marginBottom=0;whiteSpace=wrap;html=1;" parent="WIyWlLk6GJQsqaUBKTNV-1" vertex="1">
          <mxGeometry x="1150" y="160" width="200" height="90" as="geometry" />
        </mxCell>
        <mxCell id="B1A5lcR5f1wwEApOaVD2-57" value="+ exibirMenu (): void&lt;div&gt;+ lerOpcao () : int&lt;/div&gt;&lt;div&gt;+ executarOpcao (int Opcao) : void&lt;/div&gt;&lt;div&gt;&lt;br&gt;&lt;div&gt;&lt;br&gt;&lt;/div&gt;&lt;/div&gt;" style="text;strokeColor=none;fillColor=none;align=left;verticalAlign=top;spacingLeft=4;spacingRight=4;overflow=hidden;rotatable=0;points=[[0,0.5],[1,0.5]];portConstraint=eastwest;whiteSpace=wrap;html=1;" parent="B1A5lcR5f1wwEApOaVD2-54" vertex="1">
          <mxGeometry y="26" width="200" height="64" as="geometry" />
        </mxCell>
        <mxCell id="B1A5lcR5f1wwEApOaVD2-58" value="Validador" style="swimlane;fontStyle=1;align=center;verticalAlign=top;childLayout=stackLayout;horizontal=1;startSize=26;horizontalStack=0;resizeParent=1;resizeParentMax=0;resizeLast=0;collapsible=1;marginBottom=0;whiteSpace=wrap;html=1;" parent="WIyWlLk6GJQsqaUBKTNV-1" vertex="1">
          <mxGeometry x="1170" y="400" width="210" height="80" as="geometry" />
        </mxCell>
        <mxCell id="B1A5lcR5f1wwEApOaVD2-61" value="+ validarCpf (String cpf): boolean&lt;div&gt;+ validarTipoPonto (String tipo): boolean&lt;/div&gt;&lt;div&gt;&lt;div&gt;&lt;br&gt;&lt;/div&gt;&lt;/div&gt;" style="text;strokeColor=none;fillColor=none;align=left;verticalAlign=top;spacingLeft=4;spacingRight=4;overflow=hidden;rotatable=0;points=[[0,0.5],[1,0.5]];portConstraint=eastwest;whiteSpace=wrap;html=1;" parent="B1A5lcR5f1wwEApOaVD2-58" vertex="1">
          <mxGeometry y="26" width="210" height="54" as="geometry" />
        </mxCell>
        <mxCell id="B1A5lcR5f1wwEApOaVD2-63" value="GerenciadorColaboradores" style="swimlane;fontStyle=1;align=center;verticalAlign=top;childLayout=stackLayout;horizontal=1;startSize=26;horizontalStack=0;resizeParent=1;resizeParentMax=0;resizeLast=0;collapsible=1;marginBottom=0;whiteSpace=wrap;html=1;" parent="WIyWlLk6GJQsqaUBKTNV-1" vertex="1">
          <mxGeometry x="810" y="290" width="250" height="160" as="geometry">
            <mxRectangle x="304" y="320" width="210" height="30" as="alternateBounds" />
          </mxGeometry>
        </mxCell>
        <mxCell id="B1A5lcR5f1wwEApOaVD2-64" value="- colaboradores: List&amp;lt;Colaborador&amp;gt;" style="text;strokeColor=none;fillColor=none;align=left;verticalAlign=top;spacingLeft=4;spacingRight=4;overflow=hidden;rotatable=0;points=[[0,0.5],[1,0.5]];portConstraint=eastwest;whiteSpace=wrap;html=1;" parent="B1A5lcR5f1wwEApOaVD2-63" vertex="1">
          <mxGeometry y="26" width="250" height="26" as="geometry" />
        </mxCell>
        <mxCell id="B1A5lcR5f1wwEApOaVD2-65" value="" style="line;strokeWidth=1;fillColor=none;align=left;verticalAlign=middle;spacingTop=-1;spacingLeft=3;spacingRight=3;rotatable=0;labelPosition=right;points=[];portConstraint=eastwest;strokeColor=inherit;" parent="B1A5lcR5f1wwEApOaVD2-63" vertex="1">
          <mxGeometry y="52" width="250" height="8" as="geometry" />
        </mxCell>
        <mxCell id="B1A5lcR5f1wwEApOaVD2-66" value="+ adicionarColaborador (Colaborador C): void&lt;div&gt;+ removerColaborador (int id) : boolean&lt;/div&gt;&lt;div&gt;+ editarColaborador (Colaborador C) : void&lt;/div&gt;&lt;div&gt;+ buscarColaboradorId (int id) : Colaborador&lt;/div&gt;&lt;div&gt;+ listarColaborador () : void&lt;/div&gt;&lt;div&gt;&lt;br&gt;&lt;/div&gt;" style="text;strokeColor=none;fillColor=none;align=left;verticalAlign=top;spacingLeft=4;spacingRight=4;overflow=hidden;rotatable=0;points=[[0,0.5],[1,0.5]];portConstraint=eastwest;whiteSpace=wrap;html=1;" parent="B1A5lcR5f1wwEApOaVD2-63" vertex="1">
          <mxGeometry y="60" width="250" height="100" as="geometry" />
        </mxCell>
        <mxCell id="B1A5lcR5f1wwEApOaVD2-76" style="edgeStyle=orthogonalEdgeStyle;rounded=0;orthogonalLoop=1;jettySize=auto;html=1;exitX=0.5;exitY=0;exitDx=0;exitDy=0;entryX=0.587;entryY=-0.03;entryDx=0;entryDy=0;entryPerimeter=0;" parent="WIyWlLk6GJQsqaUBKTNV-1" source="B1A5lcR5f1wwEApOaVD2-46" target="B1A5lcR5f1wwEApOaVD2-46" edge="1">
          <mxGeometry relative="1" as="geometry" />
        </mxCell>
        <mxCell id="Q2fX2N2RGr_Hfk9N_Jqp-1" value="" style="html=1;verticalAlign=bottom;endArrow=open;dashed=1;endSize=8;curved=0;rounded=0;entryX=0.5;entryY=0;entryDx=0;entryDy=0;exitX=0.453;exitY=1.052;exitDx=0;exitDy=0;exitPerimeter=0;" edge="1" parent="WIyWlLk6GJQsqaUBKTNV-1" source="B1A5lcR5f1wwEApOaVD2-45" target="B1A5lcR5f1wwEApOaVD2-63">
          <mxGeometry x="0.3049" y="-36" relative="1" as="geometry">
            <mxPoint x="770" y="230" as="sourcePoint" />
            <mxPoint x="690" y="230" as="targetPoint" />
            <Array as="points" />
            <mxPoint as="offset" />
          </mxGeometry>
        </mxCell>
        <mxCell id="Q2fX2N2RGr_Hfk9N_Jqp-2" value="" style="html=1;verticalAlign=bottom;endArrow=open;dashed=1;endSize=8;curved=0;rounded=0;entryX=0.998;entryY=0.369;entryDx=0;entryDy=0;entryPerimeter=0;exitX=-0.012;exitY=0.098;exitDx=0;exitDy=0;exitPerimeter=0;" edge="1" parent="WIyWlLk6GJQsqaUBKTNV-1" source="B1A5lcR5f1wwEApOaVD2-45" target="B1A5lcR5f1wwEApOaVD2-39">
          <mxGeometry relative="1" as="geometry">
            <mxPoint x="580" y="84.57999999999998" as="sourcePoint" />
            <mxPoint x="500" y="84.57999999999998" as="targetPoint" />
          </mxGeometry>
        </mxCell>
        <mxCell id="Q2fX2N2RGr_Hfk9N_Jqp-3" value="" style="html=1;verticalAlign=bottom;endArrow=open;dashed=1;endSize=8;curved=0;rounded=0;exitX=0.44;exitY=1.008;exitDx=0;exitDy=0;exitPerimeter=0;entryX=1;entryY=0.5;entryDx=0;entryDy=0;" edge="1" parent="WIyWlLk6GJQsqaUBKTNV-1" source="B1A5lcR5f1wwEApOaVD2-45" target="B1A5lcR5f1wwEApOaVD2-47">
          <mxGeometry relative="1" as="geometry">
            <mxPoint x="580" y="270" as="sourcePoint" />
            <mxPoint x="500" y="270" as="targetPoint" />
          </mxGeometry>
        </mxCell>
        <mxCell id="Q2fX2N2RGr_Hfk9N_Jqp-4" value="" style="html=1;verticalAlign=bottom;endArrow=open;dashed=1;endSize=8;curved=0;rounded=0;exitX=0.453;exitY=0.989;exitDx=0;exitDy=0;exitPerimeter=0;entryX=0.114;entryY=-0.037;entryDx=0;entryDy=0;entryPerimeter=0;" edge="1" parent="WIyWlLk6GJQsqaUBKTNV-1" source="B1A5lcR5f1wwEApOaVD2-45" target="B1A5lcR5f1wwEApOaVD2-58">
          <mxGeometry relative="1" as="geometry">
            <mxPoint x="520" y="440" as="sourcePoint" />
            <mxPoint x="740" y="380" as="targetPoint" />
            <Array as="points">
              <mxPoint x="1070" y="230" />
            </Array>
          </mxGeometry>
        </mxCell>
        <mxCell id="Q2fX2N2RGr_Hfk9N_Jqp-12" value="" style="endArrow=diamondThin;endFill=0;endSize=24;html=1;rounded=0;exitX=0.604;exitY=0.009;exitDx=0;exitDy=0;exitPerimeter=0;entryX=0.561;entryY=1.012;entryDx=0;entryDy=0;entryPerimeter=0;" edge="1" parent="WIyWlLk6GJQsqaUBKTNV-1" source="B1A5lcR5f1wwEApOaVD2-29" target="B1A5lcR5f1wwEApOaVD2-66">
          <mxGeometry width="160" relative="1" as="geometry">
            <mxPoint x="600" y="570" as="sourcePoint" />
            <mxPoint x="760" y="570" as="targetPoint" />
          </mxGeometry>
        </mxCell>
        <mxCell id="Q2fX2N2RGr_Hfk9N_Jqp-13" value="" style="endArrow=none;html=1;edgeStyle=orthogonalEdgeStyle;rounded=0;exitX=0;exitY=0.423;exitDx=0;exitDy=0;exitPerimeter=0;" edge="1" parent="WIyWlLk6GJQsqaUBKTNV-1" source="B1A5lcR5f1wwEApOaVD2-30">
          <mxGeometry relative="1" as="geometry">
            <mxPoint x="380" y="90" as="sourcePoint" />
            <mxPoint x="530" y="90.00000000000001" as="targetPoint" />
            <Array as="points">
              <mxPoint x="840" y="650" />
              <mxPoint x="430" y="650" />
              <mxPoint x="430" y="90" />
            </Array>
          </mxGeometry>
        </mxCell>
        <mxCell id="Q2fX2N2RGr_Hfk9N_Jqp-19" value="" style="endArrow=open;endSize=12;dashed=1;html=1;rounded=0;exitX=0.471;exitY=1.093;exitDx=0;exitDy=0;exitPerimeter=0;" edge="1" parent="WIyWlLk6GJQsqaUBKTNV-1" source="B1A5lcR5f1wwEApOaVD2-53">
          <mxGeometry x="-0.1221" y="-61" width="160" relative="1" as="geometry">
            <mxPoint x="640" y="620" as="sourcePoint" />
            <mxPoint x="840" y="620" as="targetPoint" />
            <Array as="points">
              <mxPoint x="710" y="610" />
              <mxPoint x="760" y="621" />
            </Array>
            <mxPoint as="offset" />
          </mxGeometry>
        </mxCell>
        <mxCell id="Q2fX2N2RGr_Hfk9N_Jqp-20" value="" style="endArrow=open;endSize=12;dashed=1;html=1;rounded=0;entryX=-0.01;entryY=0.685;entryDx=0;entryDy=0;entryPerimeter=0;" edge="1" parent="WIyWlLk6GJQsqaUBKTNV-1" target="B1A5lcR5f1wwEApOaVD2-53">
          <mxGeometry x="0.0768" y="-119" width="160" relative="1" as="geometry">
            <mxPoint x="520" y="74.5" as="sourcePoint" />
            <mxPoint x="500" y="540" as="targetPoint" />
            <Array as="points">
              <mxPoint x="440" y="330" />
            </Array>
            <mxPoint as="offset" />
          </mxGeometry>
        </mxCell>
        <mxCell id="Q2fX2N2RGr_Hfk9N_Jqp-21" value="" style="endArrow=open;endSize=12;dashed=1;html=1;rounded=0;entryX=1.017;entryY=0.295;entryDx=0;entryDy=0;entryPerimeter=0;exitX=0.565;exitY=0.011;exitDx=0;exitDy=0;exitPerimeter=0;" edge="1" parent="WIyWlLk6GJQsqaUBKTNV-1" source="B1A5lcR5f1wwEApOaVD2-54" target="B1A5lcR5f1wwEApOaVD2-45">
          <mxGeometry width="160" relative="1" as="geometry">
            <mxPoint x="1220" y="80" as="sourcePoint" />
            <mxPoint x="1321" y="74.5" as="targetPoint" />
            <Array as="points">
              <mxPoint x="1250" y="160" />
            </Array>
          </mxGeometry>
        </mxCell>
        <mxCell id="Q2fX2N2RGr_Hfk9N_Jqp-25" value="" style="endArrow=open;endSize=12;dashed=1;html=1;rounded=0;entryX=0.643;entryY=-0.012;entryDx=0;entryDy=0;entryPerimeter=0;exitX=0.66;exitY=1.078;exitDx=0;exitDy=0;exitPerimeter=0;" edge="1" parent="WIyWlLk6GJQsqaUBKTNV-1" source="B1A5lcR5f1wwEApOaVD2-57" target="B1A5lcR5f1wwEApOaVD2-58">
          <mxGeometry width="160" relative="1" as="geometry">
            <mxPoint x="1300" y="340" as="sourcePoint" />
            <mxPoint x="1460" y="340" as="targetPoint" />
          </mxGeometry>
        </mxCell>
      </root>
    </mxGraphModel>
  </diagram>
</mxfile>
